<svg xmlns="http://www.w3.org/2000/svg" width="307.844" height="171.328" viewBox="0 0 307.844 171.328">
    <path fill="#fff" d="M1.102 168.13S208.524 34.27 306.962 0"/>
    <g fill="#C94248">
        <path d="M307.837 2.514c.06-.385-.296-1.09-.718-.77l.1 1.372.617-.602zM303.83 1.372c-.342.81-.597 2.104.178 3.115.116-1.398.43-.947.512-2.59.424-.32.972.096 1.055.585.054-.382.833.004.81-.874-.956-.74-1.76-.49-2.29.606-.275-.21-.222-.598-.264-.842zM257.358 18.864l.356.006c-.116-.04-.235-.038-.356-.006zM229.406 31.768c.195-.134.223-.294.18-.407-.155.176-.278.328-.18.408zM224.067 32.87c.12-.013.212-.04.317-.06-.16-.056-.298-.06-.317.06zM257.358 18.864l-.922-.026c.132.414.518.11.922.026zM298.562 6.707c.135-.124.225-.284.29-.48-.112.103-.222.19-.34.276l.05.204zM269.24 12.2l.228-.105c.006-.167-.006-.362-.03-.576l-.198.68zM278.71 7.796c-.238.048.132 1.112.244 1.6-.06-.478.012-.75.168-.91-.08-.198-.21-.42-.413-.69zM294.76 3.32l.217-.254c-.054.073-.157.163-.216.253zM262.34 15.07c-.085-.144-.18-.26-.254-.325.06.13.15.235.255.325zM14.083 166.102c-.036-.07-.073-.108-.108-.168.01.128.037.205.108.168zM.944 167.885l.108-.142c-.1-.188-.198-.374-.31-.55l.202.692zM214.847 36.007c.022.002.028 0 .048 0 .165-.233.048-.146-.048 0zM137.935 79.41c1.366.37-.763 1.933 1.097 2.146-.342-.31.306-2.205-1.097-2.146zM298.262 6.668c-.125.063-.253.125-.39.167.193-.037.313-.087.39-.167zM139.03 81.555l.006.008.187.014-.192-.022zM195.578 47.015c.134.153.284.243.433.326-.06-.097-.172-.196-.432-.325zM210.902 40.66l-.43.06c.19.013.322-.017.43-.06zM188.796 52.49c-.236.03-.376-.07-.57.21.052.035.095.057.146.075.023-.19.117-.32.424-.286zM180.98 56.78c.083.054.168.08.253.12l.22-.188-.473.07zM36.66 151.257c-.332-.165-.62-.396-.882-.64.54.607-.417 1.54.883.64zM298.332 6.12c.054.284.034.442-.07.55.09-.05.172-.108.25-.167-.035-.166-.087-.315-.18-.384zM192.724 60.45l-1.317.533c.398-.094.875-.29 1.317-.532zM90.975 117.8l-.208.284c.12-.042.2-.13.208-.283zM187.816 63.14c-.412-.226-.756-.3-1.07-.298-.01.105-.034.2-.005.333l1.076-.034zM35.77 150.61c.005.002.008.008.008.008l-.008-.01zM29.3 157.81c1.155-.69-.234-1.563-.444-2.433 1.138-1.21 1.208.526 2.072.876.643-.862.576-2.42 1.24-2.768.177.176.348.174.365.523.276-1.56 2.64-1.718 2.905-3.625.147.062.252.143.33.225-.56-.52-.985-1.143-1.234-1.618.5-.342.457-1.387 1.16-.688-.33.172-.148.52-.136.867l.314-.693c1.218.877-.478.866.066 1.738.806-1.04 1.42-2.77 2.43-2.938.886 1.05-1.635 1.556.075 1.915l-1.517.332c2.083 1.228-.833.342 1.25 1.745 1.842-.683 1.462-1.725 3.3-2.4-.03-.87-.71-.874-.742-1.743 1.602-2.594 3.626 1.768 4.375-.83-.037-1.042-.772-2.61.92-2.588l.397 1.56c1.664-.85-.258-2.436 1.945-2.583.022.695-.978 1.203-.642 1.21 1.713.366.302-1.21 1.128-1.722l.887 1.05c1.575-1.224 2.916-3.21 4.656-4.574.11.41.012.97.668 1.054 2.004-2.03 5.126-2.955 7.824-3.665l.256-1.536c.21-.113.652.222.553.55 1.12-.165-.342-.663-.157-1.318.462-.38 1.02.167.883.663 1.048-1.807 3.35-4.56 5.658-4.494l-.14.494c1.534-.378.2-2.94 1.962-2.734l-.12.317c3.055-1.273 5.596-4.06 8.648-3.84-.47-1.693 3.16-1.034 2.12-3.16 2.203.03 1.962.666 4.623-.016.658-.27.137-1.802.755-2.46l.655 1.046.343-1.717 1.298.94.535-.69c-.315.104-.876-.12-1.018-.45.804-1.134 3.102-.863 3.454-.337l2.043-2.448c.198.46-.147.866-.326 1.342.73-1.907.918.964 1.587-.784-.313-.14-.286-.685-.385-.916 1.013.263 2.45-.587 3.352-1.49l.232.85c2.028-.957 3.833-2.76 5.994-4.032-.975.12-1.55-1.25-.992-1.75l.92.97c-.005-.937-.913-.03-.58-1.377.882-.35 1.3.95 1.054 1.59l.747-.97c.256.3.132.613.326 1.075-.013-.937 2.356.12 2.22-1.43l.25.3c2.163-1.264 2.912-2.228 4.636-3.323-.54-.99.275-1.18.336-2.272 1.474-.455 3.356-.54 4.864-1.542.812-1.125-.163-1.008-.01-1.873.6.835 2.11-.16 1.674.948 1.788-1.24 2.288-1.575 4.234-3.678-.47-.213-.85-.2-.877-.59.345-.397 1.196-.2 1.383.26l-.06.157c1.885-2.883 7.636-1.012 8.686-4.08l-.066.16 1.64-2.237c1.103-.432-.22 1.02.847 1.133 1.518-2.854 3.874-1.957 5.26-4.074 3.016 1.734 5.273-3.272 8.28-2.773l-.473-.55c.182-.91.843-.013 1.313-.095-.33-.448-.892-.227-.755-.75 4.053-3.32 9.775-4.38 14.698-6.417 1.778-.786-.85-3.75 2.108-3.47l.045 1.494c2.622-3.313 7-3.847 9.682-6.89-.05.378.136.728-.192.905 1.172.446 2.63-1.412 2.264-2.104.563-.21.463.554.977.724.982.102 1.183-2.062 2.02-1.436.14.1-.047.383-.14.52.234-.665 2.21-1.08 1.232-1.807 1.513-.226 2.17-1.75 3.49-1.726.058-1.444 2.44-.658 1.807-2.308.78 1.636 2.906.072 3.295-1.112-.004.626.963.118 1.014.954.896-.52 1.567-1.27.964-2 2.707.988 2.545-3.354 4.81-1.425 2.246-2.313 4.442-4.242 6.68-5.93.763 1.64-2.61 1.61-1.61 3.224 1.96-1.896 2.56-3.992 5.07-4.816.712-.096.03.87-.027 1.25 1.97-1.88 4.56-2.22 6.165-4.18.072.153-.065.433-.21.666.378-.268 1.068-.264.64-.966l-.292.405c-1.204-.71.46-3.053.242-3.65.4 2.447 2.315-.552 2.595 2.66.195-.28.35-.8.036-1.255.47-.068.745.15.63.915 1.25-1.164.33-1.666 1.665-2.333.18.355-.018.63.06 1.114.314-1.033.632-2.068 1.91-2.348.04.247.315.457-.022.624 1.868-1.098 2.336-3.524 4.793-3.95.164 1.857.978.135 1.77 1.407l.933-.983-.787-.41c1.007-.49 1.39-1.915 2.47-1.916l-.46.928 1.743-1.2-1.317.03c.663-1.196-.966-1.63.556-1.93-.202.273 1.01-.487 1.93.037 0 0-.003 0 0 .005.28-.673.564-1.376 1.472-1.417.407.33.587 1.553.856 1.774-.073-1.36 2.187-1.486 2.21-2.986-.066.384.274 1.09.413 1.2l-.043-1.113c.608.057.747.164.95.76 1.477-.533-1.29-1.472.73-1.573-.092.14.037.243-.165.517 1.85-.454 2.925-2.192 4.687-2.485 1.116 1.128-1.18.983-.1 1.868 2.09-1.32 3.79-3.85 6.09-4.575l-.472.045c-.626-2.054 2.053.166 2.703-1.262-.198.272.163 1.23.13.984 1.612-.416 2.778-1.92 4.734-3.57l-.044.623c1.08.03 2.412-.823 3.457-1.04.048-.623.624-.795-.04-1.36 4.204 1.45 4.838-4.115 8.516-2.913-.307.145-.54.766-.292.658l1.998-1.45c-.554-.764-.52-.38-1.28-.828.055-.625.506-1.293 1.054-1.54-.744 1.006.617 1.35 1.256 1.628-.188-.227-.168-.578-.322-.824 1.825.983-.565-1.785 1.464-1.482l.113.48c.49-.49.774-1.322 1.468-1.48.695.86-.427.738-.112 1.56.868-.452.944-2.654 2.19-2.024-.267.432-.81.685-1.07 1.126 1.384.75 1.36.418 2.098.32l-.076.002 1.748-.127-.522-.146c.02-3.04 2.088-1.444 2.89-3.77-.8 2.22.148 1.023.51 2.187.518.144 1.252.24 1.218.626.334-1.205 1.49.2 1.947-1.546.195.34.78-.29.995.682.81-.68-.48-.533-.59-1.018.92-1.862 3.994.096 5.383-2.427 1.514-1.413 1.362-2.77 2.8-4.047.79.355.055 1.507.055 1.507 1.12.17 1.762-.2 2.46-.957-.052.386.23.583.648.89.65-.37-.046-1.503 1.073-1.306-.003.464.044 1.188-.133 1.718.686-.634 1.233-1.61 1.958-2.25.46.555-.15 1.153-.29 1.677.84-.633 2.24-1.477 2.165-2.595l-.743-.136c.33-.176.497.803.31 1.08-.52 1.09-1.303.082-1.487-.27l.516-.455c-1.42-1.914-2.304 1.23-3.555 1.56l-.09-1.746-.744 1.772c-.417-.3-.934-1.094-.427-1.564-1.163-.42-.552.857-1.63.3-.133-.1-.125-.19-.073-.28l-.667.798c.038-.392-.57-1.037.04-1.02-1.877-.286-1.995 2.14-3.034 1.196l.088-.146c-1.9 1.364.25 1.217-.792 3.175l-2.2-2.366.255 1.213c-.233.046-.698.133-.804-.35-.492 1.096.34.436.17 1.354-1.473-.61-2.657 1.69-3.645-.01-.012 1.014 1.27.238.413 1.304-1.126-1.794-1.14.875-2.46.395-.13-1.12.993-.976-.333-1.46.142 1.926-2.004.42-2.67 1.085.538 1.35-1.5 1.298-2.647 2.313-.117-.496-2.825.39-4.28.465l-.062-.24c.358 1.45-1.03 1.77-1.834 2.466-.325-.82-.3-1.21.044-1.797l-.873.4c-.013.522-.184.87-.682 1.28l-.232-1.1c-1.142.58-1.81 2.23-3.613 2.236.345.967 2.375 2.058 1.084 3.39-.29-.478-.744-1.312-.425-1.704-.107.126-.292.635-.66.55l.238-1.138c-.85-.062-.03.87-.606 1.044-.32-.723-.636-.324-.82-.93.105-.134.607.076.685-.304-.67.158-1.603.078-2.098-.35.24.383.445.965.042 1.268-1.13.594-.795-.677-1.64-.728-.05.628-1.026.46-.546 1.538-.34.153-.636-.316-.902-.545-.377.754-2.73 1.447-1.52 2.267l.187.003c-.017.036-.05.052-.074.093l.005-.002-.004.003c-1.45 1.988-4.36 1.283-6.066 2.692l-.167-.357c-.956.967-2.447 1.488-2.897 2.652-.34.165-1.12-.258-1.178-.75-.75.694-.654 1.14-2.21 1.174.58-1.05-.575-.4.684-.896-1.293.25-1.832-.19-2.585 1.376-.027-1.112-1.424-.724-1.835-.188l1.123.26c-.547.43-1.12.61-1.702.796l-.296-1.336c-3.057-.29-2.972 4.57-5.956 3.034-.198 1.14 1.56-.05 1.496 1.2-1.15.377-3.123-.77-3.46-.604-1.8.08-.495 2.423-2.255 2.744.41.324 1.168 1.362.227 2.336-1.148.38-2.218-1.115-1.714-1.794.24-.165.43-.093.493.057.268-.33.63-.738-.027-.984l.075.493c-.753-.17-2.2.626-2.207-.243-.6.82.01.872.718.784-1.68.093-2.144 1.084-3.76 1.397.342.118.802.507.577.618-2.33.54-.497 1.27-1.798 2.174-1.125-.235-.507-1.684-1.635-.42-1.084.008-.76-1.024-.596-1.544-.863 1.475-2.674.702-3.485.93l.5-.687c-.3.41-.635.574-.974.746l.824.644c-.473.058-.81.227-.986-.127-.122.763 1.04 1.24.624 2.412-.752-.157-1.37 1.29-2.132.272 1.854-.49-.77-1.03.542-1.94-.202.274-.537.44-1.01.5-.124-.092-.063-.26.01-.38-2.105-.163-.067 1.646-1.72 2.485-.123-.74-1.007-.992-1.204-.716.668-.336.866.882.513 1.684-1.31.065-.952.967-1.532 1.2l.75-.1c.117.74-.452.934-1.08 1.52-.32-.457.488-.688.113-.766-.23 1.533-2.44-.173-3.184 1.17-.75-.15-.675-1.153-1.29-1.198-.84 1.485-1.835-.13-2.816 1.247.834.64.792.397.288 1.715l1.882-1.753-.758 1.97c.67-.338 1.117-1.27 1.59-1.335-.306 1.042-.348.796.34 1.328-1.578-.785-1.407 1.682-2.906 1.387l-1.08-2.102c-2.067-.083-2.218 2.57-4.537 3.146l.85.007c.17.975-1.197.793-1.677 1.483-.313-.73-.86-.758-1.377-1.04.312.498-1.518.757-.954 2.244l-1.405-.425c-1.85.512-.808 2.985-2.513 3.606.065-1.013-.92-1.117-.155-2.228-.533.276-1.073.41-.82.896-.544-.266-.95 1.733-1.792 1.34-.056.426.268 1.192-.354 1.458-.14-.105-.184-.344-.184-.344.185.344-.67.973.266 1.457-2.8-1.274-4.438 2.636-6.866 1.555-1.02.862-2.282 1.837-3.29 2.466-.05-.244-.19-.346.048-.384-1.787.155.218 2.473-1.807 2.663-1.45-.653.53-1.085-.223-1.22-1.486-2.146-1.793 1.405-3.626.69l.19-.282c-1.267-.305-1.565 2-3.024 2.6 0 0-.045-.238-.183-.348-.29 1.68-1.847 3.048-2.982 4.102-.088-1.115.335-.803-.42-1.564-.518.458.982 1.348-.05 2.263-.653-.27-1.738-.215-2.39-1.113l1.078-.678c-1.266-.923-1.41.853-2.115.966l-.23-.584c-1.6 1.136-.85 2.518-2.73 3.45l.42.304c-.23 1.918-1.265-.29-1.69 1.28l-1.078-1.205c-.47.703-1.552 2.63-2.583 3.554.088-1.397 1.173-2.697 1.685-3.785-.658.358-2.16 1.354-2.114 2.223.19-.28.33-.804.71-.74-.188 1.534-.94 2.652-2.248 3.373-1.285-2.79-3.756 1.262-5.876-.265-1.73 2.295-4.788 2.185-7.37 3.87 2.135 1.52-.744.508.642 2.535-.542.494-.798.596-.933.49l-2.61-.176c-.8-.358.32-.81-.01-1.25-1.452.624-1.088-.567-2.312-.61.622.65.155 1.358-.787 1.518l1.655.345c-1.244 2.226-2.668-.826-3.936 1.397l.22-1.016c-.755.96-3.632 2.085-3.606 4.34-.315-.143-.88-.588-.538-.99-2.492 1.11-4.154 4.852-6.583 4.87l-.125-.62c-.35.405-.192 1.414-1.042 1.215-.097-.23-.126-.618-.346-.53-.127.313-.63 1.583-1.384 1.62l.154-.87c-2.68.66-2.672 3.463-4.37 4.946-.89-1.52-2.97-.955-4.01-.672l-.096-.232c-2.762 1.38-3.76 3.917-5.86 5.962-2.496-.737-5.557 2.382-8.55 2.92.54.05.644 1.213.3 1.624-.756.035-.957 1.993-1.694.554l.22-.096c-1.245-1.1-2.208-.04-3.148.476l.934 1.903c-3.98-1.192-5.706 4.748-8.435 3.178-.307.8-1.027 1.227-1.33 2.024l-.553-.988c-1.756.716-2.627 1.083-4.468 2.514l-.015-.938c-1.156.616.28 3.65-.715 4.33l-1.186-1.258c-1.934 1.203-4.68 1.127-5.805 3.608-.097-.23-.294-.684-.015-.935-.938.52-4.137 1.185-2.596 2.963-.81-1.276-2.083 1.1-2.786 2.308l-.417-1.05c-.143 1.755.032 2.104-1 3.196-.368.055-.722-.604-.184-.6-1.28.1-.21 1.365-1.704 1.583l.07-.878c-1.05.542-.77.82-.89 1.866-.395.77-2.05.93-2.724.162.186.606.067 1.645-.676 1.76-.28-.275-.188-.608-.14-.773-2.076.385-1.816 2.637-3.543 2.413-.218-.3-.39-.41-.544-.446 1.347-.798 2.453-1.405 2.395-1.274-.537-.875-1.71-.367-1.595-2.103-.46 1.19-1.055 3.533-2.358 3.767-.103-.054-.204-.106-.325-.218l.048-.164c-.296.062-.462.277-.575.55-.423.063-.7.088-1.03.274-.57-.647-1.475.372-2.032.667.635.93-.162 1.21.984 1.592-.127-.015.03-.176.362-.437.062-.078.148-.15.166-.24l.015.106c.336-.243.782-.55 1.294-.887-.124.748-.313 1.43-1.234 1.267.104.784.193 1.604.206 2.006-1.558-.88-3.417-.73-4.123-1.43-1.305 1.55-3.638 2.74-3.55 5.174-.32.52-.854-.182-1.202-.356.158-.347.493-.518.478-.865-.643 1.036-2.64 1.89-2.083 3.28-1.522.162-.06-1.562-1.54-.358l-.022-.518c-4.415-.035-3.146 6.4-8.252 6.02.342.007.51.004.69.182-4.702 1.368-7.554 6.215-12.61 6.907-1.346.345-.964 1.218-1.262 2.254l-.888-.868-.42 1.914c-1.1 1.91-4.446-.69-5.5 2.267l.707.516c-.833.348-2.117 1.917-2.495 1.05.003.173.208.868-.312.697l-.362-.518-1.257 2.088c-1.67.527-1.127-2.257-3.277-1.026-.643.7-1.21 2.964-.69 3.133.33-.176 1.01-.183 1.377.336l-.528.73c.88 1.648 1.376 3.596 3.803 3.584l.59-1.73.875.512-.983.697c1.033.346.993-.52 1.123-1.217.356.343.706.518 1.042.515l.227-2.257c.535.524.246 1.56 1.257 1.39.11-1.05-1.412-1.036-.784-2.08 1.034.345 1.236 1.034 1.526-.008.352.344.373.693.217 1.042.295-.87 1.468-1.223 1.248-2.257 1.163.497 1.896-1.526 2.78 0-.035-.477.324-1.844.84-2.26.116 2.428 2.147-1.213 3.09.87-.265-2.08 2.265-2.43 3.035-4.16.005.174.022.524-.147.517.834-.34 1.357.006 2.03.005-.74-1.388.237-2.43.354-3.642 1.727.7.42 1.908 1.484 2.956-.723-1.046.925-2.078.048-2.777 1.202.35.85.003 1.902.875-.92-1.737.48-.692.423-2.08 1.533.18 1.238 1.392 2.04.183.842.16.216 1.374.216 1.374zm24.91-19.48c.004.01.01.016.01.02l-.52.394.51-.415zm2.242-1.4c-.297.13-.643.334-1 .562-.283-.282-.407-.675-.17-.797.013.297.662.162 1.17.235zm-8.853-3.697c.272-.356.507-.242.677-.076-.158.12-.335.274-.553.5l.03.143c-.078-.204-.145-.4-.155-.567zM47.732 134.883c-.04.053-.042.11-.104.16.125.04.24.07.346.085-.02-.13-.04-.26-.06-.38-.06.046-.124.093-.182.135zM257.776 18.87h-.062c.062.02.12.042.175.095-.058-.033-.073-.065-.114-.096zM88.74 119.792l-.15-.24-.07.33zM272.618 16.29c.066.078.158.15.292.184-.038-.065-.155-.125-.292-.185zM278.447 13.963l.975.02c-.443-.058-.743-.048-.975-.02zM283.097 12.587c-.02-.206-.063-.35-.102-.48-.005-.002-.007 0-.012-.004l.114.484zM214.702 47.163c-.055.036-.104.078-.14.132-.287.396-.064.18.14-.132zM233.796 34.344c-.125.29-.25.577-.417.804.402-.106.694-.228.416-.804zM192.868 60.394l-.007-.02-.137.077.145-.056zM232.42 35.607c.465.017.748-.178.96-.46-.333.083-.736.157-.96.46zM302.606 5.332l.232-.035c-.03-.068-.037-.13-.036-.18l-.196.215zM302.802 5.118l.195-.213c-.11.04-.204.084-.195.213zM303.406 4.453l-.41.452c.177-.062.405-.108.41-.452zM296.485 7.088l.08.407c.006-.093-.017-.224-.08-.407zM294.733 7.915c.462-.085 1.392.38 1.895-.095l-.062-.324c-.06.676-1.678-.383-1.833.42zM285.315 6.28l1.632-.333c-.43-.295-1.004-.694-.352-1.07-2.403-.4.76.728-1.28 1.404zM280.398 7.692c.73-.53-.257-.576-.31-.82-.36.584-.444.73.31.82zM247.074 23.004l-.368-.96c-.545.43.168.36.368.96zM243.124 30.812l.87.28-.136-.977zM236.187 26.14l.2-.265-.845.84zM181.892 55.147l.786 1.007c.292-.42-.305-1.706-.786-1.007zM159.333 69.192c-.562-.406-1.41-.392-1.507.374.563-.218 1.322-.083 1.507-.374zM89.556 107.508l.24-.636-.68.82z"/>
    </g>
</svg>
