<svg xmlns="http://www.w3.org/2000/svg" width="1207.766" height="700.271" viewBox="0 0 1207.766 700.271"><path d="M148.588 55.528v257.807H89.655V55.528H0V2.732h241.433v52.796h-92.845zM313.686 52.34v80.09H459.31v43.47H313.687v87.833h154.96v49.603H254.75V2.732h212.53v49.606H313.687zM681.086 202.518h59.16v10.698c0 43.23-7.887 71.18-23.668 83.847-15.777 12.675-50.657 19-104.665 19-61.294 0-98.982-10.01-113.096-30.038-14.103-20.013-21.158-73.564-21.158-160.643 0-51.272 9.563-84.996 28.673-101.147C525.45 8.08 565.41 0 626.246 0c44.293 0 73.875 6.64 88.75 19.912 14.857 13.275 22.294 39.63 22.294 79.074l.224 7.05H678.35v-7.96c0-20.324-3.832-33.34-11.488-39.03-7.66-5.687-25.14-8.532-52.444-8.532-36.558 0-58.52 4.478-65.882 13.43-7.357 8.953-11.034 35.496-11.034 79.638 0 59.474 3.295 94.663 9.9 105.58 6.598 10.925 27.945 16.393 64.053 16.393 29.272 0 48.272-3.034 56.998-9.106 8.73-6.07 13.087-19.42 13.087-40.05l-.454-13.882zM1017.542 2.732v310.603h-58.936V179.08h-145.63v134.255H754.04V2.732h58.933v126.742h145.63V2.732h58.937zM183.902 501.428h36.72l.257 13.64c0 53.687-35.145 80.517-105.433 80.517-45.113 0-74.917-8.477-89.433-25.436-14.518-16.96-21.776-51.936-21.776-104.913 0-49.66 7.39-83.36 22.167-101.113 14.78-17.742 42.885-26.615 84.318-26.615 40.744 0 68.54 5.988 83.41 17.968 14.858 11.972 22.294 34.487 22.294 67.53h-36.724v-6.553c0-19.41-4.807-32.348-14.424-38.817-9.62-6.47-28.767-9.708-57.44-9.708-27.633 0-45.375 6.117-53.24 18.357-7.874 12.244-11.805 39.698-11.805 82.358 0 41.614 4.497 68.108 13.51 79.468 9.01 11.367 30.04 17.05 63.078 17.05 27.983 0 45.718-3.71 53.245-11.147 7.51-7.438 11.274-24.964 11.274-52.588zM283.466 411.467H247c0-29.204 6.608-48.828 19.808-58.884 13.21-10.048 39.044-15.074 77.5-15.074 41.802 0 70.038 6.158 84.723 18.49 14.69 12.326 22.032 35.797 22.032 70.416v165.506h-36.716l2.883-27.02-.79-.27c-13.986 20.64-42.404 30.952-85.238 30.952-63.305 0-94.946-25.436-94.946-76.32 0-30.246 7.086-51.147 21.242-62.685 14.16-11.538 39.773-17.315 76.845-17.315 44.07 0 70.466 8.66 79.214 25.973l.79-.26V434.55c0-28.68-3.945-47.255-11.798-55.735-7.888-8.48-25.093-12.724-51.674-12.724-45.113 0-67.673 12.68-67.673 38.027-.002 1.22.085 3.677.263 7.347zm59.008 56.388c-28.16 0-46.462 2.98-54.946 8.922-8.484 5.938-12.72 18.7-12.72 38.29 0 20.284 4.2 33.7 12.588 40.263 8.4 6.553 25.447 9.834 51.148 9.834 51.76 0 77.638-15.744 77.638-47.21 0-19.757-5.033-33.052-15.085-39.868-10.064-6.82-29.6-10.23-58.623-10.23zM471.997 341.178h36.728l-.79 37.77.79.786c14.164-28.148 41.44-42.226 81.83-42.226 42.49 0 68.28 14.077 77.373 42.226h1.04c15.746-28.148 44.503-42.226 86.298-42.226 59.096 0 88.65 30.16 88.65 90.48V591.92h-36.728V424.58c0-22.032-3.93-36.978-11.802-44.846-7.856-7.87-22.737-11.805-44.58-11.805-29.03 0-48.695 5.467-59.027 16.388-10.302 10.933-15.468 31.785-15.468 62.557v145.047h-36.72V427.988l-.53-11.533c0-32.348-18.433-48.525-55.326-48.525-50.01 0-75.012 27.19-75.012 81.568v142.424h-36.728V341.178zM868.537 341.178h36.708l-1.836 31.736 1.057.778c12.773-24.125 40.22-36.184 82.353-36.184 37.245 0 62.86 9.44 76.856 28.323 13.98 18.888 20.973 53.68 20.973 104.387 0 47.04-7.082 79.69-21.246 97.96-14.163 18.27-39.34 27.406-75.533 27.406-41.26 0-68.547-11.1-81.826-33.308h-.798v137.168h-36.708V341.178zM976.6 367.93c-29.386 0-48.53 6.337-57.44 19.012-8.923 12.682-13.386 39.913-13.386 81.704 0 38.64 4.807 64.39 14.432 77.237 9.61 12.856 28.93 19.28 57.967 19.28 27.625 0 45.854-6.208 54.682-18.626 8.828-12.414 13.25-38.03 13.25-76.845 0-42.657-4.3-70.284-12.85-82.88-8.58-12.587-27.458-18.882-56.654-18.882zM287.94 619.04v80.404h-9.07v-69.158l.062-2.415.05-2.41h-.24l-.706 1.878c-.344.945-.582 1.554-.71 1.833l-1.516 3.77-27.394 66.505h-9.073l-27.45-65.738-1.595-3.71-.71-1.887c-.192-.43-.423-1.04-.707-1.825h-.237l.057 2.177.064 2.24v68.744h-9.07V619.04h15.733l21.434 52.017 3.428 8.42 1.705 4.184 1.65 4.184h.235l1.655-4.183c.805-2.006 1.372-3.394 1.644-4.183l3.47-8.37 21.327-52.066h15.966zM333.16 626.696v27.394h40.812v7.66H333.16v30.042h42.596v7.652H324.09V619.04h51.666v7.656H333.16zM499.8 619.04v80.404h-9.078v-69.158l.064-2.415.05-2.41h-.235l-.71 1.878c-.343.945-.578 1.554-.706 1.833l-1.516 3.77-27.397 66.505h-9.068l-27.46-65.738-1.588-3.71-.707-1.887c-.193-.43-.43-1.04-.71-1.825h-.234l.057 2.177.064 2.24v68.744h-9.08V619.04h15.73l21.446 52.017 3.417 8.42 1.715 4.184 1.648 4.184h.238l1.644-4.183c.816-2.006 1.38-3.394 1.65-4.183l3.462-8.37 21.34-52.066h15.965zM539.175 699.444V619.04h36.829c9.07 0 15.255 1.745 18.55 5.24 3.3 3.496 4.944 10.034 4.944 19.613 0 9.19-1.72 15.452-5.158 18.8-3.43 3.334-9.882 5.008-19.34 5.008l-3.534.054h-23.222v31.69h-9.07zm9.07-39.342h21.51c8.99 0 14.753-.934 17.29-2.773 2.523-1.85 3.793-6.09 3.793-12.72 0-7.782-.85-12.698-2.555-14.766-1.712-2.056-5.76-3.088-12.168-3.088l-3.47-.06h-24.4v33.406zM699.622 619.04v80.404h-9.07V662.16H643.55v37.284h-9.08V619.04h9.08v35.462h47.002V619.04h9.07zM748.086 619.04v80.404h-9.07V619.04h9.07zM842.843 640.833h-9.005c0-6.478-1.085-10.59-3.242-12.335-2.158-1.75-7.244-2.63-15.248-2.63-9.512 0-15.634.84-18.393 2.51-2.747 1.666-4.127 5.385-4.127 11.163 0 6.478 1.077 10.427 3.25 11.836 2.154 1.417 8.578 2.377 19.27 2.888 12.523.548 20.485 2.14 23.867 4.772 3.41 2.634 5.11 8.52 5.11 17.674 0 9.89-1.958 16.303-5.866 19.205-3.912 2.905-12.53 4.356-25.894 4.356-11.58 0-19.288-1.454-23.112-4.382-3.836-2.926-5.752-8.828-5.752-17.7l-.05-3.6h9.002v1.997c0 7.19 1.107 11.67 3.3 13.41 2.203 1.754 7.833 2.616 16.91 2.616 10.42 0 16.81-.86 19.21-2.614 2.395-1.742 3.59-6.42 3.59-13.993 0-4.91-.806-8.174-2.457-9.807-1.61-1.625-5.02-2.6-10.203-2.92l-9.43-.47-8.96-.473c-13.638-.944-20.44-8.01-20.44-21.21 0-9.147 1.985-15.257 5.953-18.32 3.968-3.063 11.873-4.593 23.74-4.593 12.02 0 19.86 1.43 23.508 4.274 3.65 2.848 5.468 8.966 5.468 18.35z"/><g><path d="M1161.39 355.107c-.407-3.167-.672-6.22-1.216-9.213-3.53-19.522-12.546-36.396-25.146-51.443-7.928-9.473-17.043-17.703-27.366-24.55-13.19-8.753-27.42-14.904-43.2-17.12-3.115-.437-6.274-.56-9.41-.838-1.34 8.09-2.615 15.856-3.97 24.064.516-.163.78-.303 1.06-.32 10.596-.77 20.67 1.43 30.307 5.63 18.818 8.192 33.353 21.332 44.055 38.753 6.938 11.29 11.155 23.488 11.412 36.893.008.313.128.623.21 1.01 7.748-.953 15.396-1.895 23.264-2.866zm-117.17-37.695c21.594 2.74 43.48 20.955 48.023 46.168 6.66-.82 13.317-1.637 19.976-2.46-4-32.927-32.666-60.43-64.704-63.555-1.096 6.58-2.183 13.166-3.295 19.847z"/><path fill-rule="evenodd" clip-rule="evenodd" d="M1207.283 349.703c-3.77.397-7.535.768-11.292 1.194-3.838.43-7.662.922-11.653 1.41-.067-1.984-.09-3.878-.21-5.767-1.203-18.298-7.566-34.865-16.9-50.408-7.943-13.22-17.814-24.857-29.325-35.06-15.002-13.296-31.796-23.56-51.13-29.34-8.237-2.465-16.656-3.93-25.295-3.94-.726-.003-1.46.22-2.45.387.364-2.28.65-3.988.916-5.707.9-5.65 1.775-11.3 2.66-16.953.083-.083.166-.162.25-.245 11.192.69 22.16 2.65 32.853 6.02 20.39 6.432 38.644 16.737 54.938 30.53 1.542 1.304 3.136 2.55 4.7 3.828 3.938 3.93 7.86 7.86 11.8 11.794.31.465.565.98.943 1.39 6.854 7.578 12.894 15.763 18.16 24.522 11.68 19.393 19.093 40.226 21.058 62.9.09.997.303 1.976.46 2.962l-.482.48zM1161.39 355.107c-7.867.97-15.516 1.912-23.263 2.864-.083-.385-.203-.694-.21-1.008-.258-13.404-4.476-25.603-11.413-36.894-10.702-17.42-25.236-30.56-44.056-38.753-9.636-4.2-19.71-6.398-30.307-5.63-.28.018-.543.157-1.058.32 1.354-8.208 2.63-15.974 3.968-24.064 3.137.277 6.296.4 9.41.84 15.78 2.215 30.012 8.366 43.2 17.12 10.324 6.846 19.44 15.076 27.367 24.55 12.6 15.048 21.616 31.92 25.146 51.443.545 2.994.81 6.047 1.218 9.214zM1044.22 317.412c1.112-6.68 2.2-13.268 3.296-19.847 32.038 3.125 60.705 30.628 64.703 63.554-6.66.823-13.317 1.64-19.977 2.46-4.54-25.213-26.43-43.428-48.022-46.168z"/></g></svg>