<?xml version="1.0" encoding="utf-8"?>
<!-- Generator: Adobe Illustrator 16.2.1, SVG Export Plug-In . SVG Version: 6.00 Build 0)  -->
<!DOCTYPE svg PUBLIC "-//W3C//DTD SVG 1.1//EN" "http://www.w3.org/Graphics/SVG/1.1/DTD/svg11.dtd">
<svg version="1.1" id="Layer_1" xmlns="http://www.w3.org/2000/svg" xmlns:xlink="http://www.w3.org/1999/xlink" x="0px" y="0px"
	 width="1207.766px" height="700.271px" viewBox="0 0 1207.766 700.271" enable-background="new 0 0 1207.766 700.271"
	 xml:space="preserve">
<g>
	<g>
		<g>
			<g>
				<g>
					<path d="M148.588,55.528v257.807H89.655V55.528H0V2.732h241.433v52.796H148.588z"/>
					<path d="M313.686,52.339v80.091h145.625v43.469H313.686v87.834h154.959v49.603H254.75V2.732h212.531v49.606H313.686z"/>
					<path d="M681.086,202.518h59.16v10.698c0,43.231-7.887,71.18-23.668,83.847c-15.777,12.675-50.657,19.001-104.665,19.001
						c-61.294,0-98.982-10.011-113.096-30.039c-14.103-20.013-21.158-73.564-21.158-160.643c0-51.272,9.564-84.996,28.674-101.147
						C525.45,8.08,565.409,0,626.246,0c44.293,0,73.875,6.64,88.749,19.912c14.858,13.275,22.295,39.629,22.295,79.074l0.224,7.051
						H678.35v-7.962c0-20.323-3.832-33.338-11.488-39.028c-7.66-5.688-25.141-8.533-52.444-8.533
						c-36.558,0-58.521,4.478-65.882,13.43c-7.357,8.953-11.034,35.496-11.034,79.638c0,59.474,3.295,94.663,9.9,105.58
						c6.598,10.925,27.945,16.393,64.053,16.393c29.272,0,48.272-3.034,56.998-9.106c8.729-6.069,13.087-19.42,13.087-40.05
						L681.086,202.518z"/>
					<path d="M1017.542,2.732v310.603h-58.936V179.08H812.975v134.255h-58.933V2.732h58.933v126.742h145.631V2.732H1017.542z"/>
				</g>
				<g>
					<g>
						<path d="M183.902,501.428h36.72l0.257,13.639c0,53.688-35.144,80.518-105.432,80.518c-45.113,0-74.917-8.477-89.433-25.436
							C11.496,553.191,4.238,518.214,4.238,465.237c0-49.659,7.39-83.36,22.167-101.113c14.781-17.742,42.885-26.615,84.318-26.615
							c40.744,0,68.539,5.989,83.409,17.969c14.859,11.972,22.295,34.487,22.295,67.53h-36.724v-6.553
							c0-19.409-4.807-32.348-14.424-38.817c-9.618-6.47-28.766-9.708-57.44-9.708c-27.632,0-45.374,6.117-53.238,18.357
							c-7.875,12.244-11.806,39.698-11.806,82.358c0,41.614,4.497,68.108,13.51,79.468c9.009,11.367,30.039,17.051,63.078,17.051
							c27.983,0,45.718-3.711,53.245-11.148C180.138,546.578,183.902,529.052,183.902,501.428z"/>
						<path d="M283.466,411.467h-36.467c0-29.204,6.609-48.828,19.809-58.884c13.211-10.048,39.044-15.074,77.499-15.074
							c41.803,0,70.039,6.159,84.724,18.49c14.688,12.327,22.031,35.798,22.031,70.417v165.506h-36.716l2.883-27.02l-0.79-0.271
							c-13.985,20.641-42.403,30.953-85.237,30.953c-63.305,0-94.946-25.436-94.946-76.319c0-30.247,7.086-51.148,21.242-62.686
							c14.16-11.537,39.773-17.314,76.845-17.314c44.07,0,70.466,8.661,79.214,25.973l0.79-0.261v-30.425
							c0-28.679-3.945-47.255-11.798-55.735c-7.887-8.48-25.092-12.724-51.673-12.724c-45.113,0-67.673,12.679-67.673,38.027
							C283.201,405.341,283.288,407.797,283.466,411.467z M342.474,467.855c-28.161,0-46.462,2.979-54.946,8.922
							c-8.484,5.938-12.72,18.699-12.72,38.289c0,20.285,4.199,33.7,12.588,40.264c8.4,6.553,25.447,9.834,51.148,9.834
							c51.76,0,77.638-15.744,77.638-47.211c0-19.756-5.033-33.051-15.085-39.867C391.033,471.265,371.496,467.855,342.474,467.855z
							"/>
						<path d="M471.997,341.178h36.728l-0.79,37.771l0.79,0.785c14.164-28.148,41.44-42.226,81.829-42.226
							c42.491,0,68.282,14.077,77.374,42.226h1.039c15.747-28.148,44.504-42.226,86.299-42.226c59.096,0,88.65,30.159,88.65,90.479
							v163.934h-36.728V424.579c0-22.031-3.93-36.977-11.802-44.845c-7.856-7.871-22.737-11.805-44.58-11.805
							c-29.029,0-48.695,5.468-59.027,16.389c-10.301,10.933-15.467,31.785-15.467,62.557v145.047h-36.72V427.988l-0.529-11.533
							c0-32.348-18.434-48.525-55.327-48.525c-50.011,0-75.012,27.189-75.012,81.568v142.424h-36.728V341.178z"/>
						<path d="M868.537,341.178h36.708l-1.836,31.736l1.058,0.778c12.773-24.125,40.22-36.184,82.353-36.184
							c37.245,0,62.859,9.439,76.856,28.323c13.981,18.887,20.973,53.68,20.973,104.386c0,47.04-7.081,79.69-21.245,97.961
							c-14.163,18.268-39.339,27.405-75.533,27.405c-41.26,0-68.548-11.099-81.827-33.308h-0.798v137.168h-36.708V341.178z
							 M976.601,367.93c-29.387,0-48.531,6.337-57.442,19.012c-8.922,12.682-13.385,39.913-13.385,81.704
							c0,38.64,4.807,64.39,14.432,77.237c9.61,12.856,28.93,19.281,57.967,19.281c27.625,0,45.854-6.209,54.682-18.627
							c8.828-12.414,13.249-38.031,13.249-76.845c0-42.657-4.3-70.284-12.849-82.88
							C1024.676,374.225,1005.797,367.93,976.601,367.93z"/>
					</g>
				</g>
				<g>
					<path d="M287.94,619.04v80.404h-9.069v-64.329v-4.829l0.061-2.415l0.049-2.411h-0.238l-0.707,1.878
						c-0.344,0.945-0.582,1.554-0.71,1.833l-1.516,3.768l-27.394,66.506h-9.073l-27.45-65.738l-1.595-3.711l-0.71-1.886
						c-0.192-0.431-0.423-1.039-0.707-1.825h-0.238l0.057,2.177l0.064,2.24v4.414v64.329h-9.069V619.04h15.732l21.434,52.017
						l3.427,8.42l1.705,4.184l1.651,4.183h0.234l1.655-4.183c0.805-2.007,1.372-3.395,1.644-4.184l3.469-8.371l21.328-52.065H287.94
						z"/>
					<path d="M333.159,626.696v27.394h40.813v7.659h-40.813v30.043h42.597v7.652h-51.666V619.04h51.666v7.656H333.159z"/>
					<path d="M499.799,619.04v80.404h-9.077v-64.329v-4.829l0.064-2.415l0.049-2.411h-0.234l-0.71,1.878
						c-0.344,0.945-0.579,1.554-0.707,1.833l-1.516,3.768l-27.397,66.506h-9.069l-27.461-65.738l-1.587-3.711l-0.707-1.886
						c-0.193-0.431-0.431-1.039-0.71-1.825h-0.234l0.057,2.177l0.064,2.24v4.414v64.329h-9.081V619.04h15.732l21.445,52.017
						l3.417,8.42l1.715,4.184l1.648,4.183h0.238l1.644-4.183c0.816-2.007,1.379-3.395,1.651-4.184l3.461-8.371l21.339-52.065
						H499.799z"/>
					<path d="M539.175,699.444V619.04h33.757h3.072c9.069,0,15.255,1.745,18.551,5.241c3.299,3.495,4.943,10.033,4.943,19.612
						c0,9.19-1.719,15.452-5.158,18.801c-3.431,3.333-9.882,5.007-19.341,5.007l-3.533,0.053h-23.222v31.69H539.175z
						 M548.245,660.102h21.51c8.99,0,14.753-0.934,17.289-2.773c2.524-1.848,3.794-6.088,3.794-12.72
						c0-7.781-0.851-12.697-2.555-14.765c-1.712-2.056-5.759-3.088-12.168-3.088l-3.469-0.06h-24.401V660.102z"/>
					<path d="M699.622,619.04v80.404h-9.069v-37.283H643.55v37.283h-9.081V619.04h9.081v35.462h47.002V619.04H699.622z"/>
					<path d="M748.086,619.04v80.404h-9.069V619.04H748.086z"/>
					<path d="M842.843,640.833h-9.005c0-6.478-1.085-10.589-3.242-12.335c-2.158-1.749-7.244-2.63-15.248-2.63
						c-9.512,0-15.634,0.839-18.393,2.51c-2.747,1.666-4.127,5.385-4.127,11.163c0,6.477,1.077,10.426,3.25,11.835
						c2.154,1.417,8.578,2.377,19.27,2.888c12.523,0.548,20.485,2.139,23.867,4.772c3.409,2.634,5.109,8.521,5.109,17.674
						c0,9.89-1.957,16.303-5.865,19.205c-3.911,2.905-12.53,4.356-25.893,4.356c-11.579,0-19.288-1.455-23.112-4.383
						c-3.836-2.926-5.752-8.828-5.752-17.701l-0.049-3.598h9.001v1.996c0,7.191,1.107,11.669,3.3,13.411
						c2.203,1.753,7.833,2.615,16.91,2.615c10.419,0,16.81-0.862,19.209-2.615c2.396-1.742,3.59-6.421,3.59-13.993
						c0-4.909-0.805-8.174-2.456-9.807c-1.61-1.625-5.019-2.6-10.203-2.921l-9.429-0.469l-8.96-0.473
						c-13.639-0.944-20.44-8.011-20.44-21.211c0-9.146,1.984-15.256,5.952-18.32c3.968-3.062,11.873-4.592,23.739-4.592
						c12.021,0,19.862,1.429,23.509,4.274C841.026,625.332,842.843,631.45,842.843,640.833z"/>
				</g>
			</g>
			<g id="pItPUY_3_">
				<g>
					<path d="M1161.391,355.107c-0.408-3.167-0.673-6.221-1.217-9.213c-3.529-19.522-12.546-36.396-25.146-51.443
						c-7.928-9.474-17.043-17.704-27.366-24.551c-13.189-8.753-27.421-14.904-43.201-17.119c-3.114-0.438-6.273-0.562-9.41-0.839
						c-1.338,8.091-2.614,15.856-3.968,24.064c0.515-0.163,0.778-0.303,1.059-0.321c10.596-0.768,20.671,1.432,30.307,5.631
						c18.819,8.192,33.354,21.332,44.056,38.753c6.938,11.291,11.155,23.489,11.412,36.894c0.008,0.313,0.128,0.623,0.211,1.009
						C1145.875,357.02,1153.523,356.078,1161.391,355.107z M1044.221,317.412c21.593,2.74,43.48,20.955,48.022,46.168
						c6.659-0.82,13.317-1.637,19.976-2.461c-3.998-32.926-32.665-60.429-64.703-63.554
						C1046.42,304.145,1045.333,310.731,1044.221,317.412z"/>
					<path fill-rule="evenodd" clip-rule="evenodd" d="M1207.283,349.703c-3.771,0.397-7.535,0.768-11.292,1.194
						c-3.839,0.431-7.663,0.922-11.654,1.409c-0.067-1.983-0.09-3.877-0.211-5.766c-1.202-18.298-7.565-34.865-16.899-50.408
						c-7.943-13.219-17.814-24.857-29.325-35.061c-15.002-13.295-31.796-23.558-51.129-29.34c-8.238-2.464-16.657-3.93-25.296-3.938
						c-0.726-0.004-1.459,0.219-2.449,0.386c0.363-2.279,0.65-3.987,0.915-5.706c0.899-5.65,1.775-11.3,2.66-16.953
						c0.083-0.083,0.166-0.162,0.249-0.245c11.193,0.691,22.16,2.649,32.854,6.02c20.391,6.432,38.644,16.737,54.938,30.53
						c1.542,1.304,3.136,2.551,4.7,3.828c3.938,3.93,7.86,7.86,11.799,11.794c0.31,0.465,0.566,0.979,0.944,1.391
						c6.854,7.577,12.894,15.762,18.161,24.521c11.678,19.394,19.092,40.227,21.057,62.9c0.091,0.998,0.303,1.977,0.461,2.963
						C1207.6,349.386,1207.441,349.545,1207.283,349.703z"/>
					<path fill-rule="evenodd" clip-rule="evenodd" d="M1161.391,355.107c-7.868,0.971-15.517,1.912-23.264,2.864
						c-0.083-0.386-0.203-0.695-0.211-1.009c-0.257-13.404-4.475-25.603-11.412-36.894c-10.702-17.421-25.236-30.561-44.056-38.753
						c-9.636-4.199-19.711-6.398-30.307-5.631c-0.28,0.019-0.544,0.158-1.059,0.321c1.354-8.208,2.63-15.974,3.968-24.064
						c3.137,0.276,6.296,0.4,9.41,0.839c15.78,2.215,30.012,8.366,43.201,17.119c10.323,6.847,19.438,15.077,27.366,24.551
						c12.6,15.048,21.616,31.921,25.146,51.443C1160.718,348.887,1160.983,351.94,1161.391,355.107z"/>
					<path fill-rule="evenodd" clip-rule="evenodd" d="M1044.221,317.412c1.111-6.681,2.199-13.268,3.295-19.847
						c32.038,3.125,60.705,30.628,64.703,63.554c-6.658,0.824-13.316,1.641-19.976,2.461
						C1087.702,338.367,1065.814,320.152,1044.221,317.412z"/>
				</g>
			</g>
		</g>
	</g>
</g>
</svg>
