<?xml version="1.0" encoding="utf-8"?>
<!-- Generator: Adobe Illustrator 16.2.1, SVG Export Plug-In . SVG Version: 6.00 Build 0)  -->
<!DOCTYPE svg PUBLIC "-//W3C//DTD SVG 1.1//EN" "http://www.w3.org/Graphics/SVG/1.1/DTD/svg11.dtd">
<svg version="1.1" id="Layer_1" xmlns="http://www.w3.org/2000/svg" xmlns:xlink="http://www.w3.org/1999/xlink" x="0px" y="0px"
	 width="312.114px" height="180.966px" viewBox="0 0 312.114 180.966" enable-background="new 0 0 312.114 180.966"
	 xml:space="preserve">
<g>
	<g>
		<g>
			<g>
				<g>
					<path fill="#FFFFFF" d="M38.398,14.35v66.623H23.169V14.35H0V0.706h62.392V14.35H38.398z"/>
					<path fill="#FFFFFF" d="M81.063,13.525v20.697h37.633v11.233H81.063v22.698h40.045v12.818H65.833V0.706h54.923v12.819H81.063z"
						/>
					<path fill="#FFFFFF" d="M176.008,52.335h15.288V55.1c0,11.172-2.038,18.395-6.116,21.668c-4.077,3.275-13.091,4.91-27.048,4.91
						c-15.84,0-25.579-2.587-29.227-7.763c-3.645-5.172-5.468-19.011-5.468-41.514c0-13.25,2.472-21.965,7.41-26.139
						C135.788,2.088,146.114,0,161.836,0c11.446,0,19.091,1.716,22.935,5.146c3.84,3.431,5.762,10.241,5.762,20.435l0.058,1.822
						h-15.289v-2.058c0-5.252-0.99-8.615-2.969-10.086c-1.979-1.47-6.497-2.205-13.553-2.205c-9.447,0-15.123,1.157-17.025,3.471
						c-1.901,2.313-2.852,9.173-2.852,20.58c0,15.369,0.852,24.463,2.559,27.284c1.705,2.823,7.222,4.236,16.553,4.236
						c7.564,0,12.475-0.784,14.729-2.354c2.256-1.568,3.382-5.019,3.382-10.35L176.008,52.335z"/>
					<path fill="#FFFFFF" d="M262.956,0.706v80.267h-15.23V46.278h-37.634v34.694h-15.229V0.706h15.229v32.753h37.634V0.706H262.956
						z"/>
				</g>
				<g>
					<g>
						<path fill="#FFFFFF" d="M47.524,129.58h9.489l0.066,3.524c0,13.874-9.082,20.808-27.246,20.808
							c-11.658,0-19.36-2.19-23.111-6.573c-3.752-4.382-5.627-13.421-5.627-27.111c0-12.833,1.91-21.542,5.729-26.13
							c3.82-4.585,11.083-6.878,21.79-6.878c10.529,0,17.712,1.548,21.555,4.644c3.84,3.094,5.762,8.912,5.762,17.451h-9.49v-1.693
							c0-5.016-1.242-8.359-3.728-10.031s-7.434-2.509-14.844-2.509c-7.141,0-11.726,1.581-13.758,4.744
							c-2.035,3.164-3.051,10.259-3.051,21.283c0,10.754,1.162,17.601,3.491,20.536c2.328,2.938,7.763,4.406,16.301,4.406
							c7.231,0,11.814-0.959,13.76-2.881C46.552,141.248,47.524,136.719,47.524,129.58z"/>
						<path fill="#FFFFFF" d="M73.254,106.332H63.83c0-7.547,1.708-12.618,5.119-15.217c3.414-2.597,10.09-3.896,20.027-3.896
							c10.803,0,18.1,1.592,21.895,4.778c3.796,3.186,5.693,9.251,5.693,18.197v42.771h-9.488l0.745-6.982l-0.204-0.07
							c-3.614,5.334-10.958,7.999-22.027,7.999c-16.359,0-24.536-6.573-24.536-19.723c0-7.816,1.831-13.218,5.489-16.199
							c3.659-2.981,10.278-4.475,19.858-4.475c11.389,0,18.21,2.238,20.471,6.712l0.204-0.067v-7.862
							c0-7.411-1.02-12.212-3.049-14.403c-2.038-2.191-6.484-3.288-13.354-3.288c-11.658,0-17.488,3.276-17.488,9.827
							C73.186,104.749,73.208,105.384,73.254,106.332z M88.503,120.904c-7.277,0-12.007,0.77-14.199,2.306
							c-2.192,1.534-3.287,4.832-3.287,9.895c0,5.242,1.085,8.709,3.253,10.405c2.171,1.693,6.576,2.541,13.218,2.541
							c13.376,0,20.063-4.068,20.063-12.2c0-5.105-1.301-8.541-3.898-10.303C101.052,121.785,96.003,120.904,88.503,120.904z"/>
						<path fill="#FFFFFF" d="M121.975,88.168h9.491l-0.204,9.761l0.204,0.203c3.66-7.274,10.709-10.912,21.146-10.912
							c10.98,0,17.646,3.638,19.995,10.912h0.269c4.069-7.274,11.501-10.912,22.302-10.912c15.271,0,22.909,7.794,22.909,23.382
							v42.364h-9.491v-43.245c0-5.693-1.016-9.556-3.05-11.589c-2.03-2.034-5.876-3.051-11.521-3.051
							c-7.502,0-12.584,1.413-15.254,4.235c-2.662,2.825-3.997,8.214-3.997,16.166v37.483h-9.489v-42.364l-0.137-2.98
							c0-8.359-4.764-12.54-14.298-12.54c-12.924,0-19.385,7.026-19.385,21.079v36.806h-9.491V88.168z"/>
						<path fill="#FFFFFF" d="M224.449,88.168h9.486l-0.475,8.201l0.273,0.201c3.301-6.234,10.394-9.351,21.282-9.351
							c9.625,0,16.244,2.439,19.861,7.319c3.613,4.881,5.42,13.872,5.42,26.976c0,12.156-1.83,20.594-5.49,25.315
							c-3.66,4.721-10.166,7.082-19.52,7.082c-10.663,0-17.714-2.868-21.146-8.607h-0.206v35.447h-9.486V88.168z M252.375,95.081
							c-7.594,0-12.542,1.638-14.844,4.913c-2.306,3.277-3.459,10.314-3.459,21.114c0,9.985,1.242,16.64,3.729,19.96
							c2.483,3.322,7.476,4.982,14.98,4.982c7.139,0,11.85-1.604,14.131-4.813c2.281-3.208,3.424-9.828,3.424-19.858
							c0-11.023-1.111-18.163-3.32-21.418C264.799,96.708,259.92,95.081,252.375,95.081z"/>
					</g>
				</g>
				<g>
					<path fill="#FFFFFF" d="M74.41,159.974v20.778h-2.344v-16.624v-1.248l0.016-0.624l0.013-0.623h-0.062l-0.183,0.485
						c-0.089,0.244-0.15,0.401-0.184,0.474l-0.392,0.974l-7.079,17.187h-2.345l-7.094-16.988l-0.412-0.959l-0.184-0.487
						c-0.05-0.111-0.109-0.269-0.183-0.472h-0.062l0.015,0.562l0.017,0.579v1.141v16.624h-2.344v-20.778h4.065l5.539,13.442
						l0.886,2.176l0.44,1.081l0.427,1.081h0.061l0.428-1.081c0.208-0.519,0.354-0.877,0.425-1.081l0.896-2.163l5.512-13.455H74.41z"
						/>
					<path fill="#FFFFFF" d="M86.096,161.952v7.079h10.547v1.979H86.096v7.764h11.008v1.978H83.752v-20.778h13.352v1.979H86.096z"/>
					<path fill="#FFFFFF" d="M129.159,159.974v20.778h-2.346v-16.624v-1.248l0.017-0.624l0.013-0.623h-0.061l-0.184,0.485
						c-0.089,0.244-0.149,0.401-0.183,0.474l-0.392,0.974l-7.08,17.187h-2.344l-7.097-16.988l-0.41-0.959l-0.183-0.487
						c-0.05-0.111-0.111-0.269-0.184-0.472h-0.061l0.015,0.562l0.017,0.579v1.141v16.624h-2.347v-20.778h4.065l5.542,13.442
						l0.883,2.176l0.443,1.081l0.426,1.081h0.062l0.425-1.081c0.211-0.519,0.356-0.877,0.427-1.081l0.895-2.163l5.515-13.455
						H129.159z"/>
					<path fill="#FFFFFF" d="M139.335,180.752v-20.778h8.724h0.794c2.344,0,3.942,0.451,4.794,1.354
						c0.853,0.903,1.277,2.593,1.277,5.068c0,2.375-0.444,3.993-1.333,4.858c-0.887,0.861-2.554,1.294-4.998,1.294l-0.913,0.014
						h-6.001v8.189H139.335z M141.679,170.585h5.559c2.323,0,3.812-0.241,4.468-0.717c0.652-0.478,0.98-1.573,0.98-3.287
						c0-2.011-0.22-3.281-0.66-3.815c-0.442-0.531-1.488-0.798-3.145-0.798l-0.896-0.016h-6.306V170.585z"/>
					<path fill="#FFFFFF" d="M180.798,159.974v20.778h-2.344v-9.635h-12.146v9.635h-2.347v-20.778h2.347v9.164h12.146v-9.164
						H180.798z"/>
					<path fill="#FFFFFF" d="M193.322,159.974v20.778h-2.344v-20.778H193.322z"/>
					<path fill="#FFFFFF" d="M217.81,165.605h-2.327c0-1.674-0.28-2.736-0.838-3.188c-0.558-0.452-1.872-0.68-3.94-0.68
						c-2.458,0-4.04,0.217-4.753,0.648c-0.71,0.431-1.066,1.392-1.066,2.885c0,1.674,0.278,2.694,0.84,3.059
						c0.557,0.366,2.217,0.614,4.979,0.746c3.236,0.142,5.294,0.553,6.168,1.233c0.881,0.681,1.32,2.202,1.32,4.567
						c0,2.556-0.506,4.213-1.516,4.963c-1.011,0.751-3.238,1.126-6.691,1.126c-2.992,0-4.984-0.376-5.973-1.133
						c-0.991-0.756-1.486-2.281-1.486-4.574l-0.013-0.93h2.326v0.516c0,1.858,0.286,3.016,0.853,3.466
						c0.569,0.453,2.024,0.676,4.37,0.676c2.692,0,4.344-0.223,4.964-0.676c0.619-0.45,0.928-1.659,0.928-3.616
						c0-1.269-0.208-2.112-0.635-2.534c-0.416-0.42-1.297-0.672-2.637-0.755l-2.437-0.121l-2.315-0.122
						c-3.524-0.244-5.282-2.07-5.282-5.481c0-2.363,0.513-3.942,1.538-4.734c1.025-0.791,3.068-1.187,6.135-1.187
						c3.106,0,5.133,0.369,6.075,1.104C217.34,161.6,217.81,163.181,217.81,165.605z"/>
				</g>
			</g>
			<g id="pItPUY_3_">
				<g>
					<path fill="#FFFFFF" d="M300.129,91.768c-0.105-0.818-0.174-1.607-0.314-2.381c-0.912-5.045-3.242-9.405-6.498-13.294
						c-2.049-2.448-4.404-4.575-7.072-6.345c-3.408-2.262-7.086-3.852-11.164-4.424c-0.805-0.113-1.621-0.146-2.432-0.217
						c-0.346,2.091-0.676,4.098-1.025,6.219c0.133-0.042,0.201-0.078,0.273-0.083c2.738-0.198,5.342,0.37,7.832,1.455
						c4.863,2.117,8.619,5.513,11.385,10.015c1.793,2.918,2.883,6.07,2.949,9.534c0.002,0.081,0.033,0.161,0.055,0.261
						C296.12,92.262,298.096,92.019,300.129,91.768z M269.85,82.026c5.58,0.708,11.236,5.415,12.41,11.931
						c1.721-0.212,3.441-0.423,5.162-0.636c-1.033-8.509-8.441-15.616-16.721-16.424C270.418,78.598,270.137,80.3,269.85,82.026z"/>
					<path fill-rule="evenodd" clip-rule="evenodd" fill="#FFFFFF" d="M311.989,90.371c-0.975,0.103-1.947,0.198-2.918,0.309
						c-0.992,0.111-1.98,0.238-3.012,0.364c-0.018-0.513-0.023-1.002-0.055-1.49c-0.311-4.729-1.955-9.01-4.367-13.026
						c-2.053-3.416-4.604-6.424-7.578-9.061c-3.877-3.436-8.217-6.088-13.213-7.582c-2.129-0.637-4.305-1.016-6.537-1.018
						c-0.188-0.001-0.377,0.057-0.633,0.1c0.094-0.589,0.168-1.03,0.236-1.475c0.232-1.46,0.459-2.92,0.688-4.381
						c0.021-0.021,0.043-0.042,0.064-0.063c2.893,0.179,5.727,0.685,8.49,1.556c5.27,1.662,9.986,4.325,14.197,7.89
						c0.398,0.337,0.811,0.659,1.215,0.989c1.018,1.016,2.031,2.031,3.049,3.048c0.08,0.12,0.146,0.253,0.244,0.359
						c1.771,1.958,3.332,4.073,4.693,6.337c3.018,5.012,4.934,10.396,5.441,16.255c0.023,0.258,0.078,0.511,0.119,0.766
						C312.071,90.289,312.03,90.33,311.989,90.371z"/>
					<path fill-rule="evenodd" clip-rule="evenodd" fill="#FFFFFF" d="M300.129,91.768c-2.033,0.251-4.01,0.494-6.012,0.74
						c-0.021-0.1-0.053-0.18-0.055-0.261c-0.066-3.464-1.156-6.616-2.949-9.534c-2.766-4.502-6.521-7.897-11.385-10.015
						c-2.49-1.085-5.094-1.653-7.832-1.455c-0.072,0.005-0.141,0.041-0.273,0.083c0.35-2.121,0.68-4.128,1.025-6.219
						c0.811,0.071,1.627,0.104,2.432,0.217c4.078,0.572,7.756,2.162,11.164,4.424c2.668,1.77,5.023,3.896,7.072,6.345
						c3.256,3.889,5.586,8.249,6.498,13.294C299.956,90.16,300.024,90.949,300.129,91.768z"/>
					<path fill-rule="evenodd" clip-rule="evenodd" fill="#FFFFFF" d="M269.85,82.026c0.287-1.727,0.568-3.429,0.852-5.129
						c8.279,0.808,15.688,7.915,16.721,16.424c-1.721,0.213-3.441,0.424-5.162,0.636C281.086,87.441,275.43,82.734,269.85,82.026z"
						/>
				</g>
			</g>
		</g>
	</g>
</g>
</svg>
